<?xml version="1.0" encoding="UTF-8"?>
<svg width="24" height="24" viewBox="0 0 24 24" fill="none" xmlns="http://www.w3.org/2000/svg">
  <path d="M22 4.01C21.5 4.25 20.95 4.42 20.37 4.5C20.97 4.15 21.43 3.59 21.65 2.92C21.1 3.25 20.48 3.48 19.83 3.61C19.31 3.05 18.56 2.72 17.73 2.72C16.13 2.72 14.83 4.02 14.83 5.62C14.83 5.87 14.86 6.11 14.91 6.34C12.5 6.21 10.33 5.06 8.89 3.33C8.62 3.8 8.47 4.34 8.47 4.92C8.47 6.02 9.02 7 9.85 7.57C9.38 7.56 8.94 7.43 8.55 7.22V7.26C8.55 8.68 9.54 9.87 10.86 10.16C10.6 10.23 10.32 10.27 10.03 10.27C9.83 10.27 9.63 10.25 9.44 10.21C9.84 11.38 10.91 12.23 12.19 12.25C11.19 13.04 9.94 13.5 8.58 13.5C8.33 13.5 8.08 13.49 7.84 13.45C9.13 14.3 10.68 14.78 12.35 14.78C17.73 14.78 20.67 10.31 20.67 6.44L20.66 6C21.22 5.6 21.71 5.09 22 4.51V4.01Z" fill="white"/>
</svg>
