<?xml version="1.0" encoding="UTF-8"?>
<svg width="24" height="24" viewBox="0 0 24 24" fill="none" xmlns="http://www.w3.org/2000/svg">
  <path fill-rule="evenodd" clip-rule="evenodd" d="M20.4054 3.5946C18.1821 1.37125 15.2562 0.15332 12.1562 0.15332C5.80357 0.15332 0.625 5.33189 0.625 11.6845C0.625 13.7437 1.16786 15.7492 2.19464 17.5117L0.535713 23.8462L7.01607 22.2162C8.70893 23.1537 10.6161 23.6519 12.1562 23.6519H12.1607C18.5089 23.6519 23.8482 18.4733 23.8482 12.1207C23.8482 9.02072 22.6286 6.09483 20.4054 3.5946ZM12.1562 21.6873C10.3937 21.6873 8.67321 21.2119 7.17143 20.3181L6.82321 20.1108L3.03036 21.0919L4.02679 17.3937L3.79464 17.0273C2.81607 15.4592 2.29821 13.6074 2.29821 11.6845C2.29821 6.2748 6.74643 1.82686 12.1607 1.82686C14.7357 1.82686 17.1786 2.85363 19.0446 4.71965C20.9107 6.58568 22.1795 9.02859 22.1795 12.1207C22.1795 17.5304 17.5661 21.6873 12.1562 21.6873ZM17.5446 14.1108C17.2562 13.9654 15.8196 13.2608 15.5536 13.1608C15.2875 13.0654 15.0964 13.0162 14.9054 13.3046C14.7143 13.5929 14.1571 14.2492 13.9929 14.4402C13.8286 14.6313 13.6643 14.6531 13.3759 14.5077C13.0875 14.3623 12.1562 14.0519 11.0607 13.0654C10.2107 12.3062 9.64464 11.3744 9.48036 11.086C9.31607 10.7977 9.46607 10.6442 9.60714 10.5031C9.73393 10.3762 9.89107 10.1715 10.0321 10.0073C10.1732 9.84301 10.2214 9.72408 10.3179 9.53301C10.4143 9.34194 10.3661 9.17765 10.2964 9.03229C10.2268 8.88694 9.66607 7.45029 9.42679 6.87372C9.19464 6.31501 8.95893 6.39158 8.78571 6.38372C8.62143 6.37586 8.43036 6.37586 8.23929 6.37586C8.04821 6.37586 7.73393 6.44551 7.46786 6.73372C7.20179 7.02194 6.44821 7.72658 6.44821 9.16322C6.44821 10.5999 7.48929 11.9883 7.63036 12.1794C7.77143 12.3704 9.63571 15.2346 12.4821 16.4992C13.1786 16.8039 13.7214 16.9885 14.1464 17.1231C14.8464 17.3483 15.4821 17.3156 15.9857 17.2458C16.5446 17.1677 17.6893 16.5437 17.9286 15.8719C18.1679 15.2 18.1679 14.6235 18.0982 14.5077C18.0286 14.3919 17.8339 14.3219 17.5446 14.1108Z" fill="white"/>
</svg>
