<?xml version="1.0" encoding="UTF-8"?>
<svg width="120" height="40" viewBox="0 0 120 40" xmlns="http://www.w3.org/2000/svg">
  <rect width="120" height="40" rx="6" fill="#000"/>
  <path d="M20 10c-5.523 0-10 4.477-10 10s4.477 10 10 10 10-4.477 10-10-4.477-10-10-10zm0 18c-4.411 0-8-3.589-8-8s3.589-8 8-8 8 3.589 8 8-3.589 8-8 8z" fill="#C10D12"/>
  <path d="M20 14c-3.309 0-6 2.691-6 6s2.691 6 6 6 6-2.691 6-6-2.691-6-6-6zm0 10c-2.206 0-4-1.794-4-4s1.794-4 4-4 4 1.794 4 4-1.794 4-4 4z" fill="#C10D12"/>
  <text x="45" y="20" fill="white" font-family="system-ui" font-size="12">EXPLORE IT ON</text>
  <text x="45" y="34" fill="white" font-family="system-ui" font-size="16" font-weight="600">AppGallery</text>
</svg>
