<?xml version="1.0" encoding="UTF-8"?>
<svg width="120" height="40" viewBox="0 0 120 40" xmlns="http://www.w3.org/2000/svg">
  <rect width="120" height="40" rx="6" fill="black"/>
  <path d="M24.252 20.434c-.027-2.967 2.423-4.392 2.534-4.462-1.382-2.018-3.526-2.294-4.286-2.321-1.82-.187-3.557 1.074-4.482 1.074-.926 0-2.354-1.048-3.87-1.02-1.989.029-3.825 1.158-4.848 2.94-2.07 3.592-.528 8.907 1.486 11.823.986 1.422 2.156 3.02 3.692 2.962 1.483-.06 2.042-.957 3.832-.957 1.789 0 2.297.957 3.861.925 1.595-.027 2.604-1.448 3.577-2.877 1.128-1.646 1.59-3.241 1.617-3.323-.036-.016-3.097-1.189-3.126-4.714M20.717 12.96c.815-.99 1.367-2.364 1.216-3.735-1.175.048-2.6.784-3.442 1.774-.756.877-1.416 2.278-1.239 3.623 1.311.102 2.65-.669 3.465-1.662" fill="#fff"/>
  <text x="45" y="20" fill="white" font-family="system-ui" font-size="12">Download on the</text>
  <text x="45" y="34" fill="white" font-family="system-ui" font-size="16" font-weight="600">App Store</text>
</svg>
